<?xml version="1.0" standalone="no"?>
<!DOCTYPE svg PUBLIC "-//W3C//DTD SVG 20010904//EN"
 "http://www.w3.org/TR/2001/REC-SVG-20010904/DTD/svg10.dtd">
<svg version="1.0" xmlns="http://www.w3.org/2000/svg"
 width="400.000000pt" height="400.000000pt" viewBox="0 0 400.000000 400.000000"
 preserveAspectRatio="xMidYMid meet">
<metadata>
Created by potrace 1.11, written by Peter Selinger 2001-2013
</metadata>
<g transform="translate(0.000000,400.000000) scale(0.100000,-0.100000)"
fill="#000000" stroke="none">
<path d="M1309 3252 l-46 -3 -44 -77 c-51 -90 -345 -600 -358 -622 -9 -14
-142 -244 -202 -349 -15 -25 -45 -79 -69 -119 -23 -40 -40 -80 -38 -90 3 -9
132 -237 288 -507 156 -269 292 -506 303 -525 29 -53 119 -204 123 -209 2 -2
340 -4 751 -5 l748 -1 39 65 c39 67 285 491 342 591 l31 56 -209 359 c-115
198 -220 377 -233 399 -12 22 -66 115 -120 207 l-97 166 -442 0 -442 1 -26
-42 c-28 -46 -353 -606 -375 -647 -7 -14 -13 -28 -13 -31 0 -4 198 -6 440 -6
256 0 444 -3 449 -9 21 -21 532 -906 527 -912 -5 -4 -1111 -7 -1237 -3 -22 1
-42 31 -180 268 -85 146 -163 282 -174 302 -11 20 -32 56 -46 81 -15 25 -36
61 -47 80 -10 19 -58 102 -105 184 -52 91 -83 154 -78 160 5 6 18 27 28 46 22
39 168 293 306 530 49 85 130 226 180 313 85 149 91 157 121 158 17 0 294 1
616 1 l585 1 123 -214 c68 -118 135 -234 149 -259 14 -25 49 -85 78 -135 29
-49 62 -106 73 -125 35 -63 245 -425 247 -428 2 -2 40 17 84 43 75 43 80 48
70 68 -7 12 -127 222 -269 467 -141 245 -268 465 -282 490 -36 65 -159 274
-164 279 -4 4 -1339 7 -1405 3z"/>
</g>
</svg>
